<?xml version="1.0" standalone="no"?><!DOCTYPE svg PUBLIC "-//W3C//DTD SVG 1.1//EN" "http://www.w3.org/Graphics/SVG/1.1/DTD/svg11.dtd"><svg width="100%" height="100%" viewBox="0 0 772 250" version="1.1" xmlns="http://www.w3.org/2000/svg" xmlns:xlink="http://www.w3.org/1999/xlink" xml:space="preserve" style="fill-rule:evenodd;clip-rule:evenodd;stroke-linejoin:round;stroke-miterlimit:1.41421;"><g transform="matrix(0.5,1.26906e-18,2.56471e-18,1,386,0)"><rect x="0" y="0" width="772" height="250" style="fill:#0085ba;"/></g><g transform="matrix(5.24649,-4.86998e-17,-2.57577e-16,3.39799,-1803.19,1.67378e-14)"><rect x="343.694" y="0" width="73.573" height="73.573" style="fill:#eee;"/></g><g transform="matrix(-10.4167,0,0,10.0475,3000.32,-823.587)"><path d="M262.885,88.791c-0.152,0.324 -0.606,1.05 -1.362,2.178c-0.756,1.128 -1.402,1.96 -1.938,2.496c-0.172,0.172 -0.453,0.341 -0.843,0.507c-0.39,0.166 -0.774,0.269 -1.152,0.309c-0.378,0.04 -0.671,-0.032 -0.879,-0.216c-0.188,-0.22 -0.256,-0.519 -0.204,-0.897c0.052,-0.378 0.162,-0.753 0.33,-1.125c0.168,-0.372 0.344,-0.662 0.528,-0.87c0.492,-0.54 1.291,-1.187 2.397,-1.941c1.106,-0.754 1.841,-1.221 2.205,-1.401l0.108,-0.03c0.076,-0.024 0.175,-0.024 0.297,0c0.122,0.024 0.231,0.082 0.327,0.174c0.104,0.1 0.17,0.222 0.198,0.366c0.028,0.144 0.036,0.246 0.024,0.306c-0.012,0.06 -0.024,0.108 -0.036,0.144ZM252.727,97.239c0.264,-0.172 0.478,-0.363 0.642,-0.573c0.164,-0.21 0.283,-0.412 0.357,-0.606c0.074,-0.194 0.142,-0.384 0.204,-0.57c0.062,-0.186 0.152,-0.371 0.27,-0.555c0.118,-0.184 0.273,-0.344 0.465,-0.48c0.272,-0.2 0.585,-0.288 0.939,-0.264c0.354,0.024 0.657,0.17 0.909,0.438c0.204,0.22 0.307,0.55 0.309,0.99c0.002,0.44 -0.133,0.802 -0.405,1.086c-0.304,0.28 -0.667,0.483 -1.089,0.609c-0.422,0.126 -0.85,0.179 -1.284,0.159c-0.434,-0.02 -0.873,-0.098 -1.317,-0.234Z" style="fill:#0085ba;fill-rule:nonzero;"/></g><g transform="matrix(10.4167,-3.85218e-15,3.50198e-15,10.0475,-2228.32,-828.298)"><path d="M258.151,88.461l1.092,-1.092l3.816,3.81l-1.098,1.092c-0.312,-0.208 -0.662,-0.293 -1.05,-0.255c-0.388,0.038 -0.72,0.195 -0.996,0.471l-0.45,0.45c-0.272,0.276 -0.427,0.607 -0.465,0.993c-0.038,0.386 0.047,0.737 0.255,1.053l-1.098,1.092l-1.446,-1.446l-1.68,1.674c-0.216,0.216 -0.623,0.526 -1.221,0.93c-0.598,0.404 -0.951,0.552 -1.059,0.444c-0.108,-0.108 0.04,-0.463 0.444,-1.065c0.404,-0.602 0.712,-1.009 0.924,-1.221l1.674,-1.674l-1.446,-1.452l1.098,-1.092c0.312,0.208 0.662,0.293 1.05,0.255c0.388,-0.038 0.718,-0.195 0.99,-0.471l0.45,-0.45c0.276,-0.272 0.433,-0.602 0.471,-0.99c0.038,-0.388 -0.047,-0.74 -0.255,-1.056Z" style="fill:#eee;fill-rule:nonzero;"/></g><g transform="matrix(0.427885,-2.73687e-16,-1.40128e-16,1.95312,358.115,1.81556e-14)"><rect x="64" y="0" width="2.337" height="128" style="fill:#ddd;"/></g></svg>